<?xml version="1.0" standalone="no"?>
<!DOCTYPE svg PUBLIC "-//W3C//DTD SVG 20010904//EN"
 "http://www.w3.org/TR/2001/REC-SVG-20010904/DTD/svg10.dtd">
<svg version="1.0" xmlns="http://www.w3.org/2000/svg"
 width="114.000000pt" height="114.000000pt" viewBox="0 0 114.000000 114.000000"
 preserveAspectRatio="xMidYMid meet">
<metadata>
Created by potrace 1.11, written by Peter Selinger 2001-2013
</metadata>
<g transform="translate(0.000000,114.000000) scale(0.100000,-0.100000)"
fill="#000000" stroke="none">
<path d="M304 995 c-5 -11 -11 -12 -24 -5 -13 7 -21 7 -26 -1 -4 -8 -9 -7 -15
2 -7 11 -9 9 -9 -6 -1 -20 -1 -20 -15 -1 -8 11 -15 15 -15 10 0 -9 -33 -14
-85 -13 -24 0 -31 0 -70 -3 l-30 -3 -3 -398 c-2 -272 1 -403 8 -412 8 -10 60
-12 220 -11 116 0 210 -3 210 -7 0 -5 5 -5 11 -1 21 12 109 10 109 -3 0 -7 4
-13 10 -13 5 0 9 3 9 8 -3 20 3 23 18 11 10 -8 14 -9 10 -2 -5 8 -1 11 12 10
16 -1 18 -4 8 -16 -9 -12 -9 -13 1 -7 8 5 12 0 12 -18 0 -14 5 -28 10 -31 6
-4 8 -11 5 -16 -3 -5 1 -6 9 -3 11 4 16 0 17 -12 0 -11 3 -13 6 -7 3 9 11 8
31 -4 l27 -17 -25 25 c-14 14 -29 23 -34 21 -5 -3 -6 0 -3 6 4 5 16 8 27 5 11
-3 17 -10 13 -17 -4 -7 -1 -7 8 1 16 13 19 67 4 80 -4 5 -5 2 -1 -4 4 -7 2
-13 -4 -13 -7 0 -10 5 -8 11 3 8 61 12 185 13 100 0 184 4 188 7 3 4 6 60 7
125 0 72 5 125 12 133 8 11 8 13 -1 7 -9 -5 -13 0 -13 13 0 12 6 21 13 21 9 0
9 2 0 8 -16 10 -16 195 1 185 8 -5 8 -3 -1 8 -7 9 -11 64 -11 156 0 79 -3 147
-6 152 -3 5 -25 9 -48 10 -101 1 -175 8 -187 16 -9 5 -12 4 -8 -1 3 -6 -13
-10 -38 -10 -27 0 -41 4 -37 11 3 5 -1 4 -9 -2 -12 -10 -18 -10 -29 0 -10 10
-11 9 -5 -2 7 -11 2 -13 -24 -8 -23 5 -30 3 -25 -5 5 -7 3 -8 -7 -2 -18 11
-59 13 -59 3 0 -5 -11 -4 -25 1 -15 6 -26 6 -30 -1 -4 -5 -11 -6 -18 -2 -18
11 -131 10 -146 -1 -11 -8 -13 -8 -8 0 4 7 0 15 -9 18 -8 3 -13 2 -10 -2 3 -5
-13 -8 -35 -8 -27 1 -38 5 -34 14 2 6 2 12 -1 12 -2 0 -7 -7 -10 -15z m443
-900 c0 -20 -4 -19 -17 5 -8 15 -8 18 3 14 8 -3 14 -11 14 -19z m-64 -6 c-8
-8 -13 -7 -18 2 -5 8 -4 10 3 5 7 -4 12 -2 12 5 0 7 3 9 7 6 4 -4 2 -12 -4
-18z"/>
</g>
</svg>
